
<svg width="37px" height="50px" viewBox="0 0 37 50" version="1.1" xmlns="http://www.w3.org/2000/svg" xmlns:xlink="http://www.w3.org/1999/xlink">
    <!-- Generator: Sketch 51.2 (57519) - http://www.bohemiancoding.com/sketch -->
    <desc>Created with Sketch.</desc>
    <defs></defs>
    <g id="Page-1" stroke="none" stroke-width="1" fill="none" fill-rule="evenodd">
        <g id="Grilled-Prawn_Desktop" transform="translate(-945.000000, -724.000000)" fill="#4A4A4A" fill-rule="nonzero">
            <g id="Recipes" transform="translate(91.000000, 672.000000)">
                <g id="Search" transform="translate(850.000000, 46.000000)">
                    <g id="ic_search_white_48px">
                        <path d="M30.4436821,37.4465409 L28.7724414,37.4465409 L28.1801029,36.6746712 C30.2532876,33.4156661 31.5014294,29.184677 31.5014294,24.5820469 C31.5014294,14.3190395 25.3453402,6 17.7507147,6 C10.1560892,6 4,14.3190395 4,24.5820469 C4,34.8450543 10.1560892,43.1640938 17.7507147,43.1640938 C21.1566609,43.1640938 24.2875929,41.4774157 26.6992567,38.6758148 L27.2704403,39.4762722 L27.2704403,41.7347055 L37.8479131,56 L41,51.7404231 L30.4436821,37.4465409 Z M17.7507147,37.4465409 C12.4831332,37.4465409 8.23098914,31.7004002 8.23098914,24.5820469 C8.23098914,17.4636935 12.4831332,11.7175529 17.7507147,11.7175529 C23.0182962,11.7175529 27.2704403,17.4636935 27.2704403,24.5820469 C27.2704403,31.7004002 23.0182962,37.4465409 17.7507147,37.4465409 Z" id="Shape"></path>
                    </g>
                </g>
            </g>
        </g>
    </g>
</svg>